<?xml version="1.0" standalone="no"?>
<!DOCTYPE svg PUBLIC "-//W3C//DTD SVG 20010904//EN"
 "http://www.w3.org/TR/2001/REC-SVG-20010904/DTD/svg10.dtd">
<svg version="1.0" xmlns="http://www.w3.org/2000/svg"
 width="261.000000pt" height="85.000000pt" viewBox="0 0 261.000000 85.000000"
 preserveAspectRatio="xMidYMid meet">
<metadata>
Created by potrace 1.10, written by Peter Selinger 2001-2011
</metadata>
<g transform="translate(0.000000,85.000000) scale(0.100000,-0.100000)"
fill="#000000" stroke="none">
<path d="M192 718 c-17 -17 -17 -509 0 -526 17 -17 42 -15 62 7 15 16 17 40
14 195 -2 97 0 176 3 176 4 0 92 -88 197 -195 105 -107 196 -195 202 -195 6 0
20 5 31 10 18 10 19 24 19 263 0 261 -2 277 -41 277 -44 0 -49 -21 -49 -213
l-1 -182 -192 198 c-191 196 -215 215 -245 185z m133 -130 c63 -64 70 -73 30
-41 -69 56 -79 58 -110 22 l-25 -31 0 66 c0 47 4 66 13 66 7 0 48 -37 92 -82z
m355 -283 c0 -81 -10 -83 -74 -15 -26 28 -43 50 -37 50 5 0 13 -4 16 -10 12
-19 54 -10 72 15 10 13 19 25 21 25 1 0 2 -29 2 -65z"/>
<path d="M1015 713 c-68 -28 -112 -70 -146 -139 -29 -58 -31 -71 -27 -132 6
-77 25 -121 77 -175 103 -109 268 -115 379 -14 56 52 83 106 89 176 11 116
-44 215 -146 269 -52 26 -74 32 -124 31 -34 0 -80 -7 -102 -16z m210 -107
c108 -83 93 -256 -27 -315 -75 -36 -169 -21 -220 36 -48 53 -61 148 -29 211
38 74 92 104 177 100 49 -3 69 -10 99 -32z"/>
<path d="M1522 718 c-9 -9 -12 -81 -12 -263 0 -260 2 -275 42 -275 18 0 496
458 512 491 11 22 -17 59 -44 59 -10 0 -108 -88 -218 -195 -110 -107 -202
-195 -203 -195 -2 0 -3 79 -1 176 3 155 1 179 -14 195 -20 22 -45 24 -62 7z
m410 -127 c-119 -110 -127 -116 -42 -28 46 48 89 87 95 87 5 0 -18 -27 -53
-59z m-132 -124 c0 -10 -223 -222 -235 -225 -12 -3 -15 10 -15 63 l0 67 25
-30 c34 -41 51 -34 143 54 76 72 82 77 82 71z"/>
<path d="M2186 562 c-94 -92 -204 -199 -243 -237 -40 -37 -75 -77 -79 -87 -7
-22 21 -58 43 -58 8 0 43 27 77 59 l62 60 142 3 142 3 0 -46 c0 -59 27 -88 65
-71 l25 12 0 253 c0 264 -2 277 -44 277 -12 0 -85 -64 -190 -168z m194 46 l0
-61 -25 27 c-13 14 -28 26 -33 26 -5 0 -29 -14 -53 -31 -39 -28 -36 -23 25 39
38 39 73 69 78 66 4 -3 8 -33 8 -66z m-48 -125 l-3 -93 -92 0 -92 0 95 95 c52
52 94 93 94 92 1 -1 0 -44 -2 -94z m-159 -5 c-48 -51 -58 -76 -39 -97 27 -30
19 -41 -30 -41 -49 0 -69 -8 -129 -53 -22 -16 17 28 88 97 70 69 130 126 134
126 4 0 -7 -15 -24 -32z m207 -135 l0 -57 -30 29 -30 29 27 28 c15 15 28 28
30 28 2 0 3 -26 3 -57z"/>
</g>
</svg>
